<?xml version="1.0" encoding="utf-8"?>
<!-- Generator: Adobe Illustrator 22.0.1, SVG Export Plug-In . SVG Version: 6.00 Build 0)  -->
<svg version="1.1" id="Layer_1" xmlns="http://www.w3.org/2000/svg" xmlns:xlink="http://www.w3.org/1999/xlink" x="0px" y="0px"
	 viewBox="0 0 244.4 69" style="enable-background:new 0 0 244.4 69;" xml:space="preserve">
<style type="text/css">
	.st0{fill:#92278F;}
	.st1{fill:#44C8F5;}
	.st2{fill:none;}
	.st3{enable-background:new    ;}
	.st4{fill:#86338A;}
</style>
<g id="Layer_1_1_">
	<g>
		<path class="st0" d="M49.4,41.2c-5.5-0.4-7-2.4-12.8-1.7c-6.6,0.8-9.8,6-9.8,6c-9.1-12-19.3-5.4-23.5-2.5C1.4,45.8,0,47.9,0,47.8
			c3.7-3.3,15.4-9.8,24.7,2.5c0,0,2.7-5.1,9.2-5.9c5.8-0.7,7.2,1.3,12.7,1.7c6.9,0.4,10.4-6.6,11.4-8.4
			C56.6,39.7,54.1,41.5,49.4,41.2"/>
		<path class="st1" d="M27.1,43.7l12.3-21.3c-3.4-4-7.4-5.6-13.9-4c-5.3,1.3-7.8,4-7.8,4C16.3,23.9,4,41.9,4.1,41.8
			C8.4,38.3,19.2,33.7,27.1,43.7"/>
		<path class="st1" d="M71,13.8c0,0-1.5,1-5.6,2.2c-6.3,1.8-7.8-1.5-13.3-1c-4.7,0.4-7.2,2.6-8.2,4.2L27.6,43.7
			c0.7-0.9,3.9-4.4,9.6-5.7c5.2-1.2,7.5,0.7,13,1c7.2,0.5,10.2-5.8,10.2-5.8L71,13.8z"/>
		<path class="st0" d="M196.5,36.5l-3.7-7.7l13.7-13.5h-10.6l-13,12.8L187.7,1h-8.6l-6.8,39l-6.4-4.2c-2,2.5-4.5,3.8-7.5,3.8
			c-4.3,0-7-2.2-7.8-5.6c2.2,0.9,5,1.6,8.2,1.6c7.8,0.1,13.7-3.6,14.8-9.6c1.2-6.4-4.3-11.2-12.8-11.2c-8,0-16,5.5-17.7,14.1
			c-0.1-7.9-5.2-14.1-13.6-14.1c-3,0-5.7,1.1-7.8,2.9c1.4-7.9,2.9-16.5,2.9-16.5H116l-6.7,38h-2l0,0h-0.6c-2.4,0-2.8-0.9-2.4-2.9
			l3.9-20.9h-8.6l-0.7,3.8c-1.8-2.7-4.9-4.4-9.2-4.4c-8.4,0-15,6.5-16.4,14.3c-1.6,9.6,3.3,18,13.9,18c4.2,0,7.2-1.5,9.4-3.8
			c0.9,1.9,2.7,3.2,5.5,3.2h3.3h0.7h2.1h8.6l0.7-4.2c1.9,2.9,5,4.8,9.5,4.8c7.6,0,14.5-5.6,15.9-14.3c0.2,7.7,5.3,14.3,15.1,14.3
			c7.1,0,11.3-2.7,14.4-6.7l-1.1,6.1h8.6l1.3-7.5l5.3-5.1l2.9,6c2.9,5.8,3.7,6.6,10.4,6.6h1.2l1.3-7.4h-1.8
			C198.2,39,197.5,38.6,196.5,36.5 M161,22.1c3,0,4.6,1.2,4.3,2.7c-0.3,1.8-2.5,3.3-7.2,3.2c-2.5,0.1-4.7-0.3-6.4-0.9
			C153.7,24,157.3,22.1,161,22.1 M97.1,31.4c-0.7,4-3.7,7.7-8.5,7.7c-5,0-7.8-4.5-7.1-9.1c0.6-3.9,4-7.6,8.8-7.6
			C94.7,22.5,97.9,26.6,97.1,31.4 M134.7,31.6c-0.7,4.1-4,7.7-8.6,7.7c-4.9,0-7.9-4.5-7.1-9.2c0.7-4.2,4.3-7.5,8.5-7.5
			C132.6,22.5,135.5,26.8,134.7,31.6"/>
		<path class="st0" d="M236.1,15.4h-8.6l-0.7,3.8c-1.8-2.7-4.9-4.4-9.2-4.4c-8.4,0-15,6.5-16.4,14.3c-1.6,9.6,3.3,18,13.9,18
			c4.2,0,7.2-1.5,9.4-3.8c0.9,1.9,2.7,3.2,5.5,3.2h4l1.3-7.3h-0.6c-2.4,0-2.8-0.9-2.4-2.9L236.1,15.4z M225,31.4
			c-0.7,4-3.7,7.7-8.5,7.7c-5,0-7.8-4.5-7.1-9.1c0.6-3.9,4-7.6,8.8-7.6C222.6,22.5,225.9,26.6,225,31.4"/>
		<path class="st0" d="M240.8,39.1c-2,0-3.6,1.6-3.6,3.6s1.6,3.6,3.6,3.6s3.6-1.6,3.6-3.6C244.4,40.7,242.8,39.1,240.8,39.1
			 M240.8,45.7c-1.7,0-2.9-1.3-2.9-3c0-1.6,1.3-3,2.9-3c1.7,0,2.9,1.3,2.9,3S242.4,45.7,240.8,45.7"/>
		<path class="st0" d="M242.3,42.1c0-0.6-0.5-1.2-1.4-1.2h-1.4v3.6h0.7v-3h0.6c0.4,0,0.8,0.2,0.8,0.6s-0.3,0.7-0.8,0.7h-0.3l1,1.7
			h0.8l-0.8-1.2C242,43.1,242.3,42.6,242.3,42.1"/>
	</g>
</g>
<g id="Layer_2_1_">
	<rect x="1" y="55.7" class="st2" width="244.4" height="16.3"/>
	<g class="st3">
		<path class="st4" d="M8.7,63.9L7.6,57l-3.5,6.9H3.3l-1-8.3h0.9L4,62.5l3.4-6.8h0.9l1.1,6.9l3.2-6.9h0.9l-3.9,8.3H8.7z"/>
		<path class="st4" d="M12.9,60.7c0.3-1.6,1.8-2.6,3.3-2.6c1.6,0,2.4,1,2.3,1.9c-0.2,1-1.1,1.6-2.6,1.6c-0.8,0-1.6-0.2-2.1-0.4
			c0,1.2,0.8,2,2.1,2c0.7,0,1.3-0.3,1.8-0.8l0.7,0.4c-0.5,0.7-1.4,1.2-2.5,1.2C13.6,64,12.6,62.5,12.9,60.7z M13.8,60.5
			c0.6,0.2,1.3,0.4,1.9,0.4c1.1,0,1.8-0.4,1.9-1c0.1-0.5-0.4-1-1.4-1C15.1,58.9,14.1,59.5,13.8,60.5z"/>
		<path class="st4" d="M22.3,59.8c0.1-0.5,0-0.8-0.5-0.8h-0.2l0.1-0.8h0.4c0.5,0,0.8,0.2,0.9,0.7c0.5-0.6,1.2-0.9,1.9-0.9
			c0.7,0,1.5,0.4,1.8,1.1c0.5-0.7,1.2-1.1,2-1.1c1.6,0,2.4,1.1,2.1,2.7l-0.3,1.6c-0.1,0.5,0,0.7,0.4,0.7h0.2l-0.2,0.8h-0.5
			c-0.7,0-1.1-0.5-0.9-1.4l0.3-1.7c0.2-1.1-0.2-1.9-1.3-1.9c-1,0-1.6,0.8-1.7,1.7l-0.7,3.3h-0.9l0.7-3.3c0.2-0.9-0.2-1.7-1.3-1.7
			c-1,0-1.6,0.6-1.9,1.9l-0.6,3.1h-0.9L22.3,59.8z"/>
		<path class="st4" d="M32.4,60.7c0.3-1.5,1.5-2.6,3-2.6c1.1,0,1.8,0.5,2.2,1.2l0.2-1.1h0.9l-0.7,4.1c-0.1,0.6,0,0.8,0.5,0.8h0.1
			l-0.2,0.8H38c-0.6,0-0.9-0.3-0.9-0.8c-0.5,0.5-1.2,0.9-2,0.9C33.2,64,32.1,62.5,32.4,60.7z M37.3,61.3c0.2-1.2-0.5-2.4-1.9-2.4
			c-1,0-2,0.8-2.2,1.9c-0.2,1.2,0.6,2.4,1.9,2.4C36.2,63.2,37.1,62.4,37.3,61.3z"/>
		<path class="st4" d="M43,62.9l-1-1.8l-1.4,1.2l-0.3,1.6h-0.9l1.4-8.3h0.9l-1,5.5l3.5-2.9h1.2l-2.8,2.4l1.1,1.9
			c0.3,0.5,0.4,0.6,0.9,0.6h0.2l-0.1,0.8h-0.1C43.5,63.9,43.4,63.7,43,62.9z"/>
		<path class="st4" d="M45.5,60.7c0.3-1.6,1.8-2.6,3.3-2.6c1.6,0,2.4,1,2.3,1.9c-0.2,1-1.1,1.6-2.6,1.6c-0.8,0-1.6-0.2-2.1-0.4
			c0,1.2,0.8,2,2.1,2c0.7,0,1.3-0.3,1.8-0.8l0.7,0.4c-0.5,0.7-1.4,1.2-2.5,1.2C46.3,64,45.2,62.5,45.5,60.7z M46.4,60.5
			c0.6,0.2,1.3,0.4,1.9,0.4c1.1,0,1.8-0.4,1.9-1c0.1-0.5-0.4-1-1.4-1C47.7,58.9,46.7,59.5,46.4,60.5z"/>
		<path class="st4" d="M54.3,62.5l0.7-4.2h0.9l-0.7,4.2c-0.1,0.5,0,0.7,0.5,0.7h0.2l-0.2,0.8h-0.4C54.4,63.9,54.1,63.4,54.3,62.5z
			 M55.1,56.3c0.1-0.4,0.4-0.6,0.7-0.6c0.5,0,0.7,0.4,0.6,0.8c-0.1,0.4-0.4,0.6-0.7,0.6C55.3,57.1,55,56.7,55.1,56.3z"/>
		<path class="st4" d="M57,58.3h0.9l0.2-1.3l1-0.5l-0.3,1.8h1.3L60,59h-1.3l-0.5,2.7c-0.2,1.2,0,1.4,1.1,1.4l-0.1,0.8H59
			c-1.6,0-2-0.5-1.8-2.2l0.5-2.7h-0.9L57,58.3z"/>
		<path class="st4" d="M63.1,60.7c0.3-1.6,1.8-2.6,3.3-2.6c1.6,0,2.4,1,2.3,1.9c-0.2,1-1.1,1.6-2.6,1.6c-0.8,0-1.6-0.2-2.1-0.4
			c0,1.2,0.8,2,2.1,2c0.7,0,1.3-0.3,1.8-0.8l0.7,0.4C67.9,63.6,67,64,65.9,64C63.9,64,62.8,62.5,63.1,60.7z M64,60.5
			c0.6,0.2,1.3,0.4,1.9,0.4c1.1,0,1.8-0.4,1.9-1c0.1-0.5-0.4-1-1.4-1C65.3,58.9,64.3,59.5,64,60.5z"/>
		<path class="st4" d="M69.7,60.7c0.3-1.5,1.5-2.6,3-2.6c1.1,0,1.8,0.5,2.2,1.2l0.2-1.1H76l-0.7,4.1c-0.1,0.6,0,0.8,0.5,0.8h0.1
			l-0.2,0.8h-0.4c-0.6,0-0.9-0.3-0.9-0.8c-0.5,0.5-1.2,0.9-2,0.9C70.5,64,69.4,62.5,69.7,60.7z M74.6,61.3c0.2-1.2-0.5-2.4-1.9-2.4
			c-1,0-2,0.8-2.2,1.9c-0.2,1.2,0.6,2.4,1.9,2.4C73.5,63.2,74.4,62.4,74.6,61.3z"/>
		<path class="st4" d="M76.6,62.8l0.8-0.5c0.3,0.6,0.9,1,1.8,1c0.8,0,1.2-0.4,1.3-0.8c0.1-0.6-0.6-0.8-1.4-1.1
			c-1-0.3-1.8-0.7-1.6-1.9c0.1-0.8,1-1.4,2.1-1.4c0.9,0,1.7,0.4,2.2,1l-0.7,0.5c-0.4-0.5-0.9-0.8-1.6-0.8c-0.6,0-1,0.2-1.1,0.7
			c-0.1,0.6,0.4,0.8,1.3,1.1c0.9,0.3,1.9,0.8,1.7,1.8c-0.1,0.9-0.9,1.5-2.2,1.5C77.9,64,77.1,63.5,76.6,62.8z"/>
		<path class="st4" d="M82.1,65l0.8-0.3c0.2,0.7,0.8,1.1,1.6,1.1c1.1,0,1.6-0.8,1.9-2l0.1-0.4C86,63.8,85.5,64,84.9,64
			c-1.5,0-2.4-1.1-2.1-2.7l0.3-1.5c0.1-0.6,0-0.8-0.5-0.8h-0.1l0.1-0.8h0.5c0.8,0,1.1,0.5,0.9,1.5l-0.3,1.6
			c-0.2,1.1,0.3,1.9,1.3,1.9c1.1,0,1.8-0.9,1.9-1.9l0.6-3.1h0.9l-1,5.5c-0.3,1.7-1.1,2.8-2.8,2.8C83.3,66.6,82.4,66,82.1,65z"/>
		<path class="st4" d="M91,62.8l0.8-0.5c0.3,0.6,0.9,1,1.8,1c0.8,0,1.2-0.4,1.3-0.8c0.1-0.6-0.6-0.8-1.4-1.1c-1-0.3-1.8-0.7-1.6-1.9
			c0.1-0.8,1-1.4,2.1-1.4c0.9,0,1.7,0.4,2.2,1l-0.7,0.5c-0.4-0.5-0.9-0.8-1.6-0.8c-0.6,0-1,0.2-1.1,0.7c-0.1,0.6,0.4,0.8,1.3,1.1
			c0.9,0.3,1.9,0.8,1.7,1.8c-0.1,0.9-0.9,1.5-2.2,1.5C92.3,64,91.5,63.5,91,62.8z"/>
		<path class="st4" d="M97,60.7c0.3-1.5,1.5-2.6,3.1-2.6c1.9,0,3,1.6,2.7,3.3c-0.3,1.5-1.5,2.6-3.1,2.6C97.8,64,96.7,62.5,97,60.7z
			 M101.9,61.3c0.2-1.2-0.5-2.4-1.9-2.4c-1,0-2,0.8-2.2,1.9c-0.2,1.2,0.6,2.4,1.9,2.4C100.8,63.2,101.7,62.5,101.9,61.3z"/>
		<path class="st4" d="M105.7,65l0.8-0.3c0.2,0.7,0.8,1.1,1.6,1.1c1.1,0,1.6-0.8,1.9-2l0.1-0.4c-0.5,0.4-1.1,0.6-1.7,0.6
			c-1.5,0-2.4-1.1-2.1-2.7l0.3-1.5c0.1-0.6,0-0.8-0.5-0.8h-0.1l0.1-0.8h0.5c0.8,0,1.1,0.5,0.9,1.5l-0.3,1.6
			c-0.2,1.1,0.3,1.9,1.3,1.9c1.1,0,1.8-0.9,1.9-1.9l0.6-3.1h0.9l-1,5.5c-0.3,1.7-1.1,2.8-2.8,2.8C106.9,66.6,106,66,105.7,65z"/>
		<path class="st4" d="M112.8,60.7c0.3-1.5,1.5-2.6,3.1-2.6c1.9,0,3,1.6,2.7,3.3c-0.3,1.5-1.5,2.6-3.1,2.6
			C113.6,64,112.5,62.5,112.8,60.7z M117.7,61.3c0.2-1.2-0.5-2.4-1.9-2.4c-1,0-2,0.8-2.2,1.9c-0.2,1.2,0.6,2.4,1.9,2.4
			C116.6,63.2,117.6,62.5,117.7,61.3z"/>
		<path class="st4" d="M120,61.3l0.3-1.5c0.1-0.6,0-0.8-0.5-0.8h-0.1l0.1-0.8h0.5c0.8,0,1.1,0.5,0.9,1.5l-0.3,1.6
			c-0.2,1.1,0.3,1.9,1.3,1.9c1.1,0,1.8-0.9,1.9-1.9l0.6-3.1h0.9l-0.8,4.1c-0.1,0.5,0,0.8,0.5,0.8h0.2l-0.1,0.8h-0.5
			c-0.5,0-0.9-0.2-0.9-0.7c-0.5,0.5-1.2,0.8-1.9,0.8C120.6,64,119.7,62.9,120,61.3z"/>
		<path class="st4" d="M128.8,60.7c0.3-1.5,1.5-2.6,3.1-2.6c1.2,0,2.1,0.6,2.5,1.5l-0.8,0.4c-0.3-0.6-0.9-1.1-1.7-1.1
			c-1,0-2,0.8-2.2,1.9c-0.2,1.2,0.6,2.4,1.9,2.4c0.8,0,1.4-0.4,1.9-1.1l0.8,0.4c-0.5,0.9-1.5,1.5-2.7,1.5
			C129.6,64,128.5,62.5,128.8,60.7z"/>
		<path class="st4" d="M135.4,60.7c0.3-1.5,1.5-2.6,3-2.6c1.1,0,1.8,0.5,2.2,1.2l0.2-1.1h0.9l-0.7,4.1c-0.1,0.6,0,0.8,0.5,0.8h0.1
			l-0.2,0.8H141c-0.6,0-0.9-0.3-1-0.8c-0.5,0.5-1.2,0.9-2,0.9C136.2,64,135.1,62.5,135.4,60.7z M140.3,61.3c0.2-1.2-0.5-2.4-1.9-2.4
			c-1,0-2,0.8-2.2,1.9c-0.2,1.2,0.6,2.4,1.9,2.4C139.1,63.2,140.1,62.4,140.3,61.3z"/>
		<path class="st4" d="M143.3,59.8c0.1-0.5,0-0.8-0.5-0.8h-0.2l0.1-0.8h0.4c0.5,0,0.8,0.2,0.9,0.8c0.5-0.6,1.2-0.9,2-0.9
			c1.5,0,2.4,1.1,2.1,2.7l-0.3,1.6c-0.1,0.6-0.1,0.7,0.5,0.7h0.2l-0.2,0.8H148c-0.9,0-1.2-0.5-1-1.4l0.3-1.7
			c0.2-1.1-0.3-1.9-1.3-1.9c-1.2,0-1.8,0.8-2,1.9l-0.6,3.1h-0.9L143.3,59.8z"/>
		<path class="st4" d="M152.5,59.8c0.1-0.5,0-0.8-0.5-0.8h-0.2l0.1-0.8h0.4c0.5,0,0.8,0.2,0.9,0.7c0.5-0.6,1.2-0.9,1.9-0.9
			c0.7,0,1.5,0.4,1.8,1.1c0.5-0.7,1.2-1.1,2-1.1c1.6,0,2.4,1.1,2.1,2.7l-0.3,1.6c-0.1,0.5,0,0.7,0.4,0.7h0.2l-0.2,0.8h-0.5
			c-0.7,0-1.1-0.5-0.9-1.4l0.3-1.7c0.2-1.1-0.2-1.9-1.3-1.9c-1,0-1.6,0.8-1.7,1.7l-0.7,3.3h-0.9l0.7-3.3c0.2-0.9-0.2-1.7-1.3-1.7
			c-1,0-1.6,0.6-1.9,1.9l-0.6,3.1h-0.9L152.5,59.8z"/>
		<path class="st4" d="M162.6,60.7c0.3-1.5,1.5-2.6,3-2.6c1.1,0,1.8,0.5,2.2,1.2l0.2-1.1h0.9l-0.7,4.1c-0.1,0.6,0,0.8,0.5,0.8h0.1
			l-0.2,0.8h-0.4c-0.6,0-0.9-0.3-0.9-0.8c-0.5,0.5-1.2,0.9-2,0.9C163.4,64,162.2,62.5,162.6,60.7z M167.5,61.3
			c0.2-1.2-0.5-2.4-1.9-2.4c-1,0-2,0.8-2.2,1.9c-0.2,1.2,0.6,2.4,1.9,2.4C166.3,63.2,167.3,62.4,167.5,61.3z"/>
		<path class="st4" d="M173.1,62.9l-1-1.8l-1.4,1.2l-0.3,1.6h-0.9l1.4-8.3h0.9l-1,5.5l3.5-2.9h1.2l-2.8,2.4l1.1,1.9
			c0.3,0.5,0.4,0.6,0.9,0.6h0.2l-0.1,0.8h-0.1C173.7,63.9,173.6,63.7,173.1,62.9z"/>
		<path class="st4" d="M175.7,60.7c0.3-1.6,1.8-2.6,3.3-2.6c1.6,0,2.4,1,2.3,1.9c-0.2,1-1.1,1.6-2.6,1.6c-0.8,0-1.6-0.2-2.1-0.4
			c0,1.2,0.8,2,2.1,2c0.7,0,1.3-0.3,1.8-0.8l0.7,0.4c-0.5,0.7-1.4,1.2-2.5,1.2C176.4,64,175.3,62.5,175.7,60.7z M176.5,60.5
			c0.6,0.2,1.3,0.4,1.9,0.4c1.1,0,1.8-0.4,1.9-1c0.1-0.5-0.4-1-1.4-1C177.9,58.9,176.9,59.5,176.5,60.5z"/>
		<path class="st4" d="M184.5,62.5l0.7-4.2h0.9l-0.7,4.2c-0.1,0.5,0,0.7,0.5,0.7h0.2l-0.2,0.8h-0.4
			C184.6,63.9,184.3,63.4,184.5,62.5z M185.3,56.3c0.1-0.4,0.4-0.6,0.7-0.6c0.5,0,0.7,0.4,0.6,0.8c-0.1,0.4-0.4,0.6-0.7,0.6
			C185.5,57.1,185.2,56.7,185.3,56.3z"/>
		<path class="st4" d="M187.1,58.3h0.9l0.2-1.3l1-0.5l-0.3,1.8h1.3l-0.1,0.8h-1.3l-0.5,2.7c-0.2,1.2,0,1.4,1.1,1.4l-0.1,0.8h-0.1
			c-1.6,0-2-0.5-1.8-2.2l0.5-2.7H187L187.1,58.3z"/>
		<path class="st4" d="M193.3,60.7c0.3-1.5,1.5-2.6,3-2.6c1.1,0,1.8,0.5,2.2,1.2l0.2-1.1h0.9l-0.7,4.1c-0.1,0.6,0,0.8,0.5,0.8h0.1
			l-0.2,0.8h-0.4c-0.6,0-0.9-0.3-0.9-0.8c-0.5,0.5-1.2,0.9-2,0.9C194.1,64,193,62.5,193.3,60.7z M198.2,61.3
			c0.2-1.2-0.5-2.4-1.9-2.4c-1,0-2,0.8-2.2,1.9c-0.2,1.2,0.6,2.4,1.9,2.4C197,63.2,198,62.4,198.2,61.3z"/>
		<path class="st4" d="M201.2,59.8c0.1-0.5,0-0.8-0.5-0.8h-0.2l0.1-0.8h0.4c0.5,0,0.8,0.2,0.9,0.7c0.5-0.6,1.2-0.9,1.9-0.9
			c0.7,0,1.5,0.4,1.8,1.1c0.5-0.7,1.2-1.1,2-1.1c1.6,0,2.4,1.1,2.1,2.7l-0.3,1.6c-0.1,0.5,0,0.7,0.4,0.7h0.2l-0.2,0.8h-0.5
			c-0.7,0-1.1-0.5-0.9-1.4l0.3-1.7c0.2-1.1-0.2-1.9-1.3-1.9c-1,0-1.6,0.8-1.7,1.7l-0.7,3.3h-0.9l0.7-3.3c0.2-0.9-0.2-1.7-1.3-1.7
			c-1,0-1.6,0.6-1.9,1.9l-0.6,3.1h-0.9L201.2,59.8z"/>
		<path class="st4" d="M211.3,60.7c0.3-1.5,1.5-2.6,3-2.6c1.1,0,1.8,0.5,2.2,1.2l0.2-1.1h0.9l-0.7,4.1c-0.1,0.6,0,0.8,0.5,0.8h0.1
			l-0.2,0.8h-0.4c-0.6,0-0.9-0.3-0.9-0.8c-0.5,0.5-1.2,0.9-2,0.9C212.1,64,211,62.5,211.3,60.7z M216.2,61.3
			c0.2-1.2-0.5-2.4-1.9-2.4c-1,0-2,0.8-2.2,1.9c-0.2,1.2,0.6,2.4,1.9,2.4C215.1,63.2,216,62.4,216.2,61.3z"/>
		<path class="st4" d="M218.4,63.1l4.5-4.1h-3.7l0.1-0.8h4.9l-0.1,0.8l-4.5,4.1h3.9l-0.1,0.8h-5.1L218.4,63.1z"/>
		<path class="st4" d="M224.9,62.5l0.7-4.2h0.9l-0.7,4.2c-0.1,0.5,0,0.7,0.5,0.7h0.2l-0.2,0.8h-0.4C225,63.9,224.7,63.4,224.9,62.5z
			 M225.7,56.3c0.1-0.4,0.4-0.6,0.7-0.6c0.5,0,0.7,0.4,0.6,0.8c-0.1,0.4-0.4,0.6-0.7,0.6C225.9,57.1,225.6,56.7,225.7,56.3z"/>
		<path class="st4" d="M228.3,59.8c0.1-0.5,0-0.8-0.5-0.8h-0.2l0.1-0.8h0.4c0.5,0,0.8,0.2,0.9,0.8c0.5-0.6,1.2-0.9,2-0.9
			c1.5,0,2.4,1.1,2.1,2.7l-0.3,1.6c-0.1,0.6-0.1,0.7,0.5,0.7h0.2l-0.2,0.8h-0.4c-0.9,0-1.2-0.5-1-1.4l0.3-1.7
			c0.2-1.1-0.3-1.9-1.3-1.9c-1.2,0-1.8,0.8-2,1.9l-0.6,3.1h-0.9L228.3,59.8z"/>
		<path class="st4" d="M234.6,60.7c0.3-1.5,1.5-2.6,3-2.6c1.1,0,1.8,0.5,2.2,1.2l0.2-1.1h0.9l-1,5.5c-0.3,1.7-1.2,2.8-3,2.8
			c-1.3,0-2.2-0.6-2.6-1.6l0.9-0.3c0.2,0.6,0.8,1.1,1.7,1.1c1.2,0,1.8-0.8,2-2c0,0,0-0.2,0.1-0.5c-0.5,0.5-1.1,0.7-1.9,0.7
			C235.4,64,234.3,62.5,234.6,60.7z M239.5,61.3c0.2-1.2-0.5-2.4-1.9-2.4c-1,0-2,0.8-2.2,1.9c-0.2,1.2,0.6,2.4,1.9,2.4
			C238.3,63.2,239.3,62.4,239.5,61.3z"/>
		<path class="st4" d="M241.2,63.2c0.1-0.4,0.4-0.6,0.7-0.6c0.5,0,0.7,0.4,0.6,0.8c-0.1,0.4-0.4,0.6-0.7,0.6
			C241.4,64,241.2,63.7,241.2,63.2z"/>
	</g>
</g>
</svg>
