<svg width="35" height="30" viewBox="0 0 35 30" fill="none" xmlns="http://www.w3.org/2000/svg">
<path d="M13.6797 0.109375L15.6816 2.79492C11.1895 7.02669 8.86198 11.3561 8.69922 15.7832C10.1315 15.7832 11.3848 16.0762 12.459 16.6621C14.8027 17.9316 15.9746 19.8848 15.9746 22.5215C15.9746 23.8236 15.6491 25.0605 14.998 26.2324C13.5983 28.7389 11.4824 29.9922 8.65039 29.9922C6.56706 29.9922 4.79297 29.2598 3.32812 27.7949C1.70052 26.1673 0.886719 23.9863 0.886719 21.252C0.886719 17.8665 1.81445 14.416 3.66992 10.9004C5.85091 6.66862 9.1875 3.07161 13.6797 0.109375ZM32.6738 0.109375L34.6758 2.79492C30.1836 7.02669 27.8561 11.3561 27.6934 15.7832C29.1257 15.7832 30.3789 16.0762 31.4531 16.6621C33.7969 17.9316 34.9688 19.8848 34.9688 22.5215C34.9688 23.8236 34.6432 25.0605 33.9922 26.2324C32.5924 28.7389 30.4766 29.9922 27.6445 29.9922C25.5612 29.9922 23.7871 29.2598 22.3223 27.7949C20.6947 26.1673 19.8809 23.9863 19.8809 21.252C19.8809 17.8665 20.8086 14.416 22.6641 10.9004C24.8451 6.66862 28.1816 3.07161 32.6738 0.109375Z" fill="black"/>
</svg>
