<svg width="36" height="31" viewBox="0 0 36 31" fill="none" xmlns="http://www.w3.org/2000/svg">
<path d="M1.27539 27.6992C5.73503 23.5 8.07878 19.1706 8.30664 14.7109C8.07878 14.7109 7.91602 14.7109 7.81836 14.7109C6.64648 14.7109 5.53971 14.4342 4.49805 13.8809C2.1543 12.5788 0.982422 10.5931 0.982422 7.92383C0.982422 6.62174 1.30794 5.41732 1.95898 4.31055C3.35872 1.77148 5.45833 0.501953 8.25781 0.501953C10.3737 0.501953 12.1478 1.23438 13.5801 2.69922C15.2402 4.32682 16.0703 6.49154 16.0703 9.19336C16.0703 12.6113 15.1426 16.0944 13.2871 19.6426C11.1061 23.8418 7.76953 27.4225 3.27734 30.3848L1.27539 27.6992ZM20.2695 27.6992C24.7292 23.5 27.0729 19.1706 27.3008 14.7109C27.0729 14.7109 26.9102 14.7109 26.8125 14.7109C25.6406 14.7109 24.5339 14.4342 23.4922 13.8809C21.1484 12.5788 19.9766 10.5931 19.9766 7.92383C19.9766 6.62174 20.3021 5.41732 20.9531 4.31055C22.3529 1.77148 24.4525 0.501953 27.252 0.501953C29.3678 0.501953 31.1419 1.23438 32.5742 2.69922C34.2344 4.32682 35.0645 6.49154 35.0645 9.19336C35.0645 12.6113 34.1367 16.0944 32.2812 19.6426C30.1003 23.8418 26.7637 27.4225 22.2715 30.3848L20.2695 27.6992Z" fill="black"/>
</svg>
